# xmcd CD database file
#
# Track frame offsets:
#	150
#	14937
#	29581
#	42682
#	55298
#	67815
#	80198
#	95273
#	110491
#	125008
#	137832
#	150320
#	163677
#	176542
#	192133
#	205319
#	219186
#	231988
#	246979
#	260484
#	273806
#	287636
#	300072
#	313787
#	327687
#	339988
#
# Disc length: 4726 seconds
#
# Revision: 0
# Processed by: cddbd v1.5.2PL0 Copyright (c) Steve Scherf et al.
# Submitted via: CDex 1.50
#
DISCID=8212741a
DTITLE=R.A. Dvorský - Vzpomínky 5
DYEAR=2009
DGENRE=Jazz
TTITLE0=Synku muj
TTITLE1=Chci vás mít rád, madam
TTITLE2=C. a k. polní marsálek
TTITLE3=Marion
TTITLE4=Já miluji jen vás
TTITLE5=Dej gól
TTITLE6=Anita
TTITLE7=Lilian
TTITLE8=Kdoz ví, zda jednou
TTITLE9=Zdáli, kam oci nedohlédnou
TTITLE10=Jablícko lásky
TTITLE11=Ty muj svatý Antonícku
TTITLE12=V dáli na bílém rozcestí
TTITLE13=Carevna
TTITLE14=Antoinette
TTITLE15=Lady Mackbeth
TTITLE16=Do tvých malých rucek
TTITLE17=Sbíral jsem hvezdicky po nebi
TTITLE18=Pod modrou oblohou
TTITLE19=Pomalu jedu tichou pustinou
TTITLE20=Tys jak ta hvezdicka
TTITLE21=Jen ty jediná
TTITLE22=Láska není hrích
TTITLE23=Mimi
TTITLE24=Vzhuru do hor, lyzari
TTITLE25=1000 mil
EXTD=YEAR: 2009
EXTT0=
EXTT1=
EXTT2=
EXTT3=
EXTT4=
EXTT5=
EXTT6=
EXTT7=
EXTT8=
EXTT9=
EXTT10=
EXTT11=
EXTT12=
EXTT13=
EXTT14=
EXTT15=
EXTT16=
EXTT17=
EXTT18=
EXTT19=
EXTT20=
EXTT21=
EXTT22=
EXTT23=
EXTT24=
EXTT25=
PLAYORDER=
